<?xml version="1.0" encoding="UTF-8" standalone="no"?>
<!-- Created with Inkscape (http://www.inkscape.org/) -->

<svg
   xmlns:dc="http://purl.org/dc/elements/1.1/"
   xmlns:cc="http://creativecommons.org/ns#"
   xmlns:rdf="http://www.w3.org/1999/02/22-rdf-syntax-ns#"
   xmlns:svg="http://www.w3.org/2000/svg"
   xmlns="http://www.w3.org/2000/svg"
   xmlns:sodipodi="http://sodipodi.sourceforge.net/DTD/sodipodi-0.dtd"
   xmlns:inkscape="http://www.inkscape.org/namespaces/inkscape"
   width="221.75423"
   height="30.20653"
   viewBox="0 0 58.672474 7.9921443"
   version="1.1"
   id="svg8940"
   inkscape:version="0.92.0 r15299"
   sodipodi:docname="infosys consulting.svg">
  <defs
     id="defs8934" />
  <sodipodi:namedview
     id="base"
     pagecolor="#ffffff"
     bordercolor="#666666"
     borderopacity="1.0"
     inkscape:pageopacity="0.0"
     inkscape:pageshadow="2"
     inkscape:zoom="4.0633426"
     inkscape:cx="110.37711"
     inkscape:cy="14.603191"
     inkscape:document-units="mm"
     inkscape:current-layer="layer1"
     showgrid="false"
     fit-margin-top="0"
     fit-margin-left="0"
     fit-margin-right="0"
     fit-margin-bottom="0"
     units="px"
     inkscape:window-width="1280"
     inkscape:window-height="744"
     inkscape:window-x="-4"
     inkscape:window-y="-4"
     inkscape:window-maximized="1" />
  <metadata
     id="metadata8937">
    <rdf:RDF>
      <cc:Work
         rdf:about="">
        <dc:format>image/svg+xml</dc:format>
        <dc:type
           rdf:resource="http://purl.org/dc/dcmitype/StillImage" />
        <dc:title></dc:title>
      </cc:Work>
    </rdf:RDF>
  </metadata>
  <g
     inkscape:label="Layer 1"
     inkscape:groupmode="layer"
     id="layer1"
     transform="translate(-61.510344,-191.574)">
    <g
       id="g9015"
       transform="translate(0.13229324,-0.13228806)">
      <path
         d="m 81.811294,193.1047 c 0.346781,0 0.632178,-0.28293 0.632178,-0.63288 0,-0.34749 -0.285397,-0.63324 -0.632178,-0.63324 -0.348544,0 -0.634294,0.28575 -0.634294,0.63324 0,0.34995 0.28575,0.63288 0.634294,0.63288 m -0.539397,-0.63288 c 0,-0.29669 0.242358,-0.53869 0.539397,-0.53869 0.295275,0 0.537633,0.242 0.537633,0.53869 0,0.29668 -0.242358,0.53904 -0.537633,0.53904 -0.297039,0 -0.539397,-0.24236 -0.539397,-0.53904 m 0.299155,0.3182 h 0.121003 v -0.26952 h 0.142522 l 0.105128,0.26952 h 0.134761 l -0.123825,-0.28786 c 0.04339,-0.0219 0.115711,-0.0466 0.115711,-0.16475 0,-0.19368 -0.145697,-0.2159 -0.271991,-0.2159 h -0.223309 z m 0.121003,-0.5528 h 0.135114 c 0.07267,0 0.112536,0.0296 0.112536,0.09 0,0.0586 -0.04551,0.0857 -0.101953,0.0857 h -0.145697 z m -20.181711,0.51858 v -0.01 -0.74542 h 0.748948 v 0.74683 0.008 4.71347 l 3.52e-4,0.0173 v 0.73837 h -0.7493 v -0.74613 -0.01 z m 7.615061,3.20252 c 0.01976,1.131 0.724253,2.03553 1.574448,2.02 0.849136,-0.0148 1.522236,-0.94438 1.50248,-2.07539 -0.01834,-1.131 -0.723194,-2.03552 -1.573036,-2.02036 -0.849136,0.0148 -1.522589,0.94439 -1.503892,2.07575 m 6.201481,-1.36737 c 0.0187,0.042 -0.02681,-0.0649 -0.02681,-0.0649 z m 0.510822,4.68277 c 0.03422,-0.0582 0.08184,-0.14746 0.138642,-0.25929 z m 0.04445,-5.07329 0.02999,0.0787 0.251883,0.61665 z m -3.139017,3.1055 c 0.46355,0.42051 0.879828,0.63853 1.412523,0.63853 0.545394,0.003 1.030816,-0.26317 1.030816,-0.77611 0,-0.42828 -0.379941,-0.67981 -1.058686,-0.96626 -0.575028,-0.24871 -1.003653,-0.42369 -1.227314,-0.78387 0.02716,0.15734 0.04163,0.31855 0.04163,0.48436 0,1.38853 -1.008239,2.51531 -2.252133,2.51531 -1.243189,0 -2.251075,-1.12678 -2.251075,-2.51531 0,-0.83749 0.366536,-1.57939 0.929569,-2.03694 h -1.523294 v 3.60363 0.0145 0.74119 h -0.677686 v -0.7165 l 0.0014,-0.0392 v -3.60363 h -0.596547 v -0.45367 h 0.604661 c 0.07867,-0.91511 0.645583,-1.43263 1.430514,-1.43263 0.509764,0 0.789163,0.0533 0.95003,0.1277 v 0.62054 c -0.0021,0.0466 -0.0021,0.0744 -0.0021,0.0744 l -0.02434,-7.1e-4 c -0.244122,-0.22648 -0.486481,-0.39476 -1.050925,-0.39335 -0.449086,0 -0.747183,0.36442 -0.642761,1.00401 h 2.532944 c 0.104775,-0.0169 0.210961,-0.0254 0.319617,-0.0254 0.903111,0 1.680633,0.59267 2.040466,1.44921 -0.0035,-0.0473 -0.0053,-0.0977 -0.0053,-0.14887 0,-0.89324 0.864658,-1.27318 1.763889,-1.27106 0.03351,-3.5e-4 0.06738,0 0.100541,7.1e-4 0.316442,-0.005 0.767292,0.0984 1.042106,0.17003 l 0.250472,0.61384 0.281869,0.69532 0.763059,1.85844 0.0896,0.29845 0.09948,-0.29845 0.963436,-2.38478 c 0.1778,-0.65687 0.881944,-0.94086 1.659466,-0.9391 0.385939,-0.002 0.671689,0.0445 1.013884,0.16546 v 0.72037 c -0.42157,-0.30551 -0.722842,-0.48401 -1.201209,-0.48401 -0.420511,0 -0.926041,0.18626 -0.926041,0.80433 -0.0081,0.46496 0.271286,0.54963 1.090083,0.95568 0.671689,0.2921 1.292578,0.61348 1.296811,1.36031 0,1.24424 -1.226608,1.45944 -1.823861,1.46191 -0.533047,0 -1.021997,-0.13194 -1.29293,-0.35737 v -0.82197 l 0.0441,0.036 c 0.483658,0.45367 0.912283,0.68721 1.466497,0.68721 0.545747,0.004 1.030464,-0.26282 1.030464,-0.77576 0,-0.42863 -0.380295,-0.67875 -1.058686,-0.96555 -0.649464,-0.28082 -1.074914,-0.46673 -1.249186,-0.9324 -0.264231,0.64559 -1.494367,3.64138 -1.783998,4.28167 h -0.66428 l 0.156986,-0.29246 0.138642,-0.25929 0.0046,-0.01 c 0.166864,-0.32703 0.408869,-0.84032 0.623711,-1.33244 l -1.277761,-3.08152 c -0.0088,-0.0194 -0.02893,-0.067 -0.07232,-0.16439 -0.09772,-0.2226 -0.189441,-0.42898 -0.465314,-0.53305 -0.147108,-0.0497 -0.304094,-0.0748 -0.488244,-0.0748 -0.419805,0 -0.957792,0.18521 -0.957792,0.80398 -0.0078,0.46461 0.303742,0.54892 1.121834,0.95497 0.672747,0.29175 1.293283,0.61419 1.296811,1.35996 0,1.2446 -1.226961,1.46015 -1.823156,1.46191 -0.474486,0 -0.912989,-0.10372 -1.195564,-0.28575 z m -9.086497,-3.84704 0.0085,0.54433 v 0.0363 h 0.0063 l 0.03175,-0.0561 c 0.275167,-0.29528 0.621594,-0.58843 1.446036,-0.58843 0.789164,0 1.299986,0.67027 1.320447,1.09149 l 3.53e-4,2.98274 v 0.0145 0.74119 h -0.676275 v -0.88936 -2.53964 c 0,-0.52564 -0.461786,-0.90558 -1.026583,-0.90558 -0.4699,0 -1.072092,0.42262 -1.092553,0.84984 v 2.72979 0.0205 0.73554 h -0.676275 l 3.53e-4,-0.756 -3.53e-4,-3.3842 3.53e-4,-0.62688 h 0.121708 0.3683 z"
         style="fill:#2d7bc8;fill-opacity:1;fill-rule:nonzero;stroke:none;stroke-width:0.35277778"
         id="path6998"
         inkscape:connector-curvature="0" />
      <path
         d="m 89.2309,198.05355 c -0.1778,0.0917 -0.571147,0.18415 -1.068211,0.18415 -1.31445,0 -2.113139,-0.82303 -2.113139,-2.08174 0,-1.36349 0.945797,-2.18652 2.211211,-2.18652 0.497417,0 0.85337,0.10442 1.007181,0.18415 l -0.165806,0.60219 c -0.196497,-0.0861 -0.466725,-0.1598 -0.810683,-0.1598 -0.841022,0 -1.449211,0.5281 -1.449211,1.52294 0,0.90911 0.534105,1.49225 1.442861,1.49225 0.307269,0 0.626533,-0.0614 0.82303,-0.15346 z"
         style="fill:#656263;fill-opacity:1;fill-rule:nonzero;stroke:none;stroke-width:0.35277778"
         id="path7002"
         inkscape:connector-curvature="0" />
      <path
         d="m 90.342494,196.12526 c 0,0.84102 0.423686,1.51095 1.148292,1.51095 0.730955,0 1.142294,-0.67593 1.142294,-1.54199 0,-0.78 -0.386644,-1.5166 -1.142294,-1.5166 -0.748948,0 -1.148292,0.69392 -1.148292,1.54764 m 3.089275,-0.0614 c 0,1.38782 -0.841728,2.17981 -1.984022,2.17981 -1.166284,0 -1.903589,-0.89041 -1.903589,-2.10644 0,-1.27105 0.798336,-2.16781 1.965325,-2.16781 1.209675,0 1.922286,0.91545 1.922286,2.09444"
         style="fill:#656263;fill-opacity:1;fill-rule:nonzero;stroke:none;stroke-width:0.35277778"
         id="path7006"
         inkscape:connector-curvature="0" />
      <path
         d="m 93.965751,198.17629 v -4.13914 h 0.859719 l 1.068564,1.77482 c 0.276225,0.46038 0.516114,0.93945 0.706261,1.38783 h 0.01235 c -0.04904,-0.5528 -0.06773,-1.08691 -0.06773,-1.71944 v -1.44321 h 0.700264 v 4.13914 H 96.46554 l -1.081264,-1.81786 c -0.263525,-0.45438 -0.540102,-0.96415 -0.742597,-1.43087 l -0.0187,0.006 c 0.03069,0.53411 0.03669,1.08056 0.03669,1.76248 v 1.4799 z"
         style="fill:#656263;fill-opacity:1;fill-rule:nonzero;stroke:none;stroke-width:0.35277778"
         id="path7010"
         inkscape:connector-curvature="0" />
      <path
         d="m 97.982205,197.35335 c 0.245533,0.14111 0.613833,0.26423 1.001183,0.26423 0.48507,0 0.755298,-0.22719 0.755298,-0.56515 0,-0.31327 -0.209198,-0.49742 -0.737306,-0.68756 -0.681567,-0.24589 -1.1176,-0.60819 -1.1176,-1.20368 0,-0.67592 0.56515,-1.19168 1.461911,-1.19168 0.448028,0 0.779639,0.0984 0.994829,0.20884 l -0.18415,0.60784 c -0.14781,-0.0797 -0.436029,-0.1965 -0.823379,-0.1965 -0.478367,0 -0.687564,0.25823 -0.687564,0.49777 0,0.31926 0.239184,0.46672 0.791986,0.68121 0.718957,0.27023 1.068917,0.63289 1.068917,1.22837 0,0.66358 -0.50377,1.24072 -1.572331,1.24072 -0.436033,0 -0.890763,-0.12276 -1.1176,-0.25788 z"
         style="fill:#656263;fill-opacity:1;fill-rule:nonzero;stroke:none;stroke-width:0.35277778"
         id="path7014"
         inkscape:connector-curvature="0" />
      <path
         d="m 101.82009,194.03699 v 2.41371 c 0,0.81033 0.33831,1.18533 0.84737,1.18533 0.54681,0 0.87242,-0.375 0.87242,-1.18533 v -2.41371 h 0.7553 v 2.36467 c 0,1.27741 -0.65723,1.8422 -1.65206,1.8422 -0.95814,0 -1.57833,-0.53445 -1.57833,-1.8362 v -2.37067 z"
         style="fill:#656263;fill-opacity:1;fill-rule:nonzero;stroke:none;stroke-width:0.35277778"
         id="path7018"
         inkscape:connector-curvature="0" />
      <path
         d="m 105.04433,194.03699 h 0.75565 v 3.50696 h 1.70074 v 0.63218 h -2.45639 z"
         style="fill:#656263;fill-opacity:1;fill-rule:nonzero;stroke:none;stroke-width:0.35277778"
         id="path7022"
         inkscape:connector-curvature="0" />
      <path
         d="m 108.74723,194.66982 h -1.17898 v -0.63288 h 3.12596 v 0.63288 h -1.19133 v 3.50661 h -0.75565 z"
         style="fill:#656263;fill-opacity:1;fill-rule:nonzero;stroke:none;stroke-width:0.35277778"
         id="path7026"
         inkscape:connector-curvature="0" />
      <path
         inkscape:connector-curvature="0"
         id="path7028"
         style="fill:#656263;fill-opacity:1;fill-rule:nonzero;stroke:none;stroke-width:0.35277778"
         d="m 111.8182,198.17614 h -0.756 V 194.037 h 0.756 z" />
      <path
         d="m 112.56725,198.17629 v -4.13914 h 0.86007 l 1.06821,1.77482 c 0.27623,0.46038 0.51612,0.93945 0.70626,1.38783 h 0.0123 c -0.049,-0.5528 -0.0677,-1.08691 -0.0677,-1.71944 v -1.44321 h 0.70026 v 4.13914 h -0.77964 l -1.08126,-1.81786 c -0.26353,-0.45438 -0.5401,-0.96415 -0.7426,-1.43087 l -0.0187,0.006 c 0.0307,0.53411 0.0367,1.08056 0.0367,1.76248 v 1.4799 z"
         style="fill:#656263;fill-opacity:1;fill-rule:nonzero;stroke:none;stroke-width:0.35277778"
         id="path7032"
         inkscape:connector-curvature="0" />
      <path
         d="m 119.91823,197.98584 c -0.26388,0.0981 -0.77999,0.23354 -1.33244,0.23354 -0.69991,0 -1.22837,-0.17815 -1.62137,-0.5528 -0.3683,-0.34996 -0.58314,-0.89676 -0.5775,-1.52295 0,-1.3081 0.93381,-2.14947 2.30294,-2.14947 0.51011,0 0.90946,0.10442 1.09925,0.1965 l -0.16545,0.60783 c -0.22754,-0.0981 -0.50377,-0.1778 -0.9398,-0.1778 -0.88406,0 -1.50424,0.52211 -1.50424,1.48626 0,0.93944 0.57714,1.49824 1.43686,1.49824 0.27023,0 0.47272,-0.037 0.57115,-0.0857 v -1.03188 h -0.73061 v -0.59584 h 1.46121 z"
         style="fill:#656263;fill-opacity:1;fill-rule:nonzero;stroke:none;stroke-width:0.35277778"
         id="path7036"
         inkscape:connector-curvature="0" />
      <path
         d="m 84.070889,191.92492 v 6.48935 h 0.242006 v -6.48935"
         style="fill:#656263;fill-opacity:1;fill-rule:nonzero;stroke:none;stroke-width:0.35277778"
         id="path7040"
         inkscape:connector-curvature="0" />
    </g>
  </g>
</svg>
